<?xml version="1.0" encoding="utf-8"?>
<!-- Generator: Adobe Illustrator 27.5.0, SVG Export Plug-In . SVG Version: 6.00 Build 0)  -->
<svg version="1.1" id="iconos" xmlns="http://www.w3.org/2000/svg" xmlns:xlink="http://www.w3.org/1999/xlink" x="0px" y="0px"
	 viewBox="0 0 918.87 846.51" style="enable-background:new 0 0 918.87 846.51;" xml:space="preserve">
<style type="text/css">
	.st0{fill:#FCFAED;stroke:#6ABEC1;stroke-width:44.9009;stroke-linecap:round;stroke-linejoin:round;stroke-miterlimit:10;}
	.st1{fill:#FFFFFF;}
	.st2{fill:#6ABEC1;}
	.st3{fill:none;stroke:#6ABEC1;stroke-width:44.9009;stroke-linecap:round;stroke-linejoin:round;stroke-miterlimit:10;}
</style>
<path class="st0" d="M319.87,818.17C-61,733.83,32.62,32.35,32.62,32.35c492.78-62.47,863.8,191.3,863.8,191.3
	S659.23,893.32,319.87,818.17z"/>
<path class="st1" d="M339.84,343.83c1.07,31.93-49-12.03-85.77-10.79c-36.79,1.24-89.28,51.64-90.48,15.8
	c-1.54-45.78,48.87-74.91,85.65-76.14C286.01,271.46,338.3,298.04,339.84,343.83z"/>
<path class="st2" d="M339.84,343.83c1.07,31.93-49-12.03-85.77-10.79c-36.79,1.24-89.28,51.64-90.48,15.8
	c-1.54-45.78,48.87-74.91,85.65-76.14C286.01,271.46,338.3,298.04,339.84,343.83z"/>
<path class="st1" d="M644.73,463.37c-18,26.39-33.33-39.05-63.73-59.79c-30.41-20.73-101.63-10.67-81.43-40.3
	c25.82-37.85,83.69-31.56,114.09-10.82C644.06,373.19,670.55,425.53,644.73,463.37z"/>
<path class="st2" d="M644.73,463.37c-18,26.39-33.33-39.05-63.73-59.79c-30.41-20.73-101.63-10.67-81.43-40.3
	c25.82-37.85,83.69-31.56,114.09-10.82C644.06,373.19,670.55,425.53,644.73,463.37z"/>
<path class="st3" d="M252.81,588.33c29.52-21.34,67.67-30.45,106.04-21.95c43.09,9.54,76.56,39.11,92.8,76.75"/>
<path class="st1" d="M154.45,222.94c19.32-15.28,44.61-25.36,72.77-27.22c32.59-2.16,62.85,7.09,85.36,23.79"/>
<path class="st3" d="M154.45,222.94c19.32-15.28,44.61-25.36,72.77-27.22c32.59-2.16,62.85,7.09,85.36,23.79"/>
<path class="st1" d="M693.26,335.93c-11.32-19.1-28.52-36.11-50.54-48.19c-24.46-13.42-50.85-18.58-75.14-16.3"/>
<path class="st3" d="M693.26,335.93c-11.32-19.1-28.52-36.11-50.54-48.19c-24.46-13.42-50.85-18.58-75.14-16.3"/>
</svg>
