<?xml version="1.0" encoding="utf-8"?>
<!-- Generator: Adobe Illustrator 27.5.0, SVG Export Plug-In . SVG Version: 6.00 Build 0)  -->
<svg version="1.1" id="iconos" xmlns="http://www.w3.org/2000/svg" xmlns:xlink="http://www.w3.org/1999/xlink" x="0px" y="0px"
	 viewBox="0 0 917.62 855.66" style="enable-background:new 0 0 917.62 855.66;" xml:space="preserve">
<style type="text/css">
	.st0{fill:#FDFBEE;stroke:#E97657;stroke-width:44.9009;stroke-miterlimit:10;}
	.st1{fill:#E97657;}
</style>
<path class="st0" d="M878.86,25.54c0,0-446.87-48.53-851.77,239.19c0,0,248.66,662.57,624.23,557.11
	C985.95,727.87,878.86,25.54,878.86,25.54z"/>
<path class="st1" d="M242.78,383.18c-3.27,7.52-10.61,12.01-18.32,12.01c-2.66,0-5.35-0.53-7.94-1.66
	c-10.11-4.39-14.74-16.15-10.35-26.26c11.89-27.37,32.3-50.65,59.03-67.34c30.84-19.24,66.33-27.11,99.95-22.14
	c10.9,1.61,18.44,11.75,16.83,22.66c-1.61,10.9-11.75,18.44-22.66,16.83c-24.25-3.57-50.18,2.29-73,16.52
	C266.77,346,251.31,363.54,242.78,383.18z"/>
<path class="st1" d="M365.68,433.26c-31.84,18.45-55.72,79.66-73.71,48.64c-22.97-39.64,7.71-89.11,39.55-107.57
	c31.83-18.45,90.47-19.71,113.45,19.93C460.99,421.89,397.51,414.8,365.68,433.26z"/>
<path class="st1" d="M697.19,578.67c-19.02,39.05-53.89,68.16-95.66,79.89c-13.46,3.78-27.24,5.62-40.95,5.62
	c-34.06,0-67.69-11.42-94.91-33.05c-8.62-6.86-10.06-19.41-3.2-28.04c6.86-8.62,19.41-10.06,28.04-3.2
	c28.17,22.39,65.64,29.96,100.23,20.25c30.82-8.66,56.54-30.14,70.58-58.95c4.83-9.91,16.78-14.03,26.68-9.2
	C697.9,556.82,702.02,568.77,697.19,578.67z"/>
<path class="st1" d="M770.18,355.7c-3.4,31.76-50.43-11.46-87.01-15.39c-36.59-3.92-92.02,31.35-88.2-4.31
	c4.88-45.55,58.86-67.33,95.45-63.41C727.01,276.51,775.07,310.14,770.18,355.7z"/>
<path class="st1" d="M769.87,230.76c-5.7,9.43-17.97,12.45-27.4,6.75c-16.68-10.09-36.45-15.53-57.17-15.74
	c-22.88-0.38-45.06,6.08-62.71,17.78c-3.39,2.25-7.22,3.33-11.01,3.33c-6.47,0-12.81-3.14-16.65-8.93
	c-6.09-9.18-3.58-21.57,5.61-27.66c24.59-16.31,54.14-24.66,85.17-24.43c27.86,0.29,54.63,7.72,77.42,21.5
	C772.55,209.06,775.58,221.34,769.87,230.76z"/>
</svg>
